<svg width="14.000000" height="7.000000" viewBox="0 0 14 7" fill="none" xmlns="http://www.w3.org/2000/svg" xmlns:xlink="http://www.w3.org/1999/xlink">
	<desc>
			Created with Pixso.
	</desc>
	<defs/>
	<path id="Vector" d="M12.48 7C12.21 7 11.96 6.89 11.77 6.71L7.18 2.21C6.99 2.03 6.74 1.93 6.47 1.93C6.21 1.93 5.96 2.03 5.77 2.21L1.18 6.71C0.99 6.89 0.73 6.99 0.47 6.98C0.21 6.98 -0.04 6.88 -0.23 6.7C-0.41 6.51 -0.52 6.27 -0.52 6.01C-0.52 5.75 -0.42 5.51 -0.24 5.32L4.35 0.83C4.92 0.29 5.68 0 6.47 0C7.26 0 8.03 0.29 8.6 0.83L13.19 5.32C13.33 5.46 13.42 5.63 13.46 5.82C13.5 6.01 13.48 6.21 13.4 6.39C13.33 6.57 13.2 6.72 13.04 6.83C12.87 6.94 12.68 7 12.48 7Z" fill="#1A1B22" fill-opacity="1.000000" fill-rule="nonzero"/>
</svg>
