<svg width="14.000000" height="7.000000" viewBox="0 0 14 7" fill="none" xmlns="http://www.w3.org/2000/svg" xmlns:xlink="http://www.w3.org/1999/xlink">
	<desc>
			Created with Pixso.
	</desc>
	<defs/>
	<path id="Vector" d="M13.44 0.28C13.26 0.1 13 0 12.74 0C12.47 0 12.22 0.1 12.03 0.28L7.44 4.76C7.25 4.93 7 5.03 6.73 5.03C6.47 5.03 6.21 4.93 6.02 4.76L1.43 0.28C1.25 0.1 0.99 0 0.73 0.01C0.47 0.01 0.22 0.11 0.03 0.29C-0.16 0.47 -0.26 0.72 -0.26 0.97C-0.26 1.23 -0.16 1.48 0.02 1.66L4.61 6.14C4.89 6.41 5.22 6.62 5.58 6.77C5.95 6.92 6.34 7 6.73 7C7.12 7 7.52 6.92 7.88 6.77C8.24 6.62 8.58 6.41 8.85 6.14L13.44 1.66C13.63 1.48 13.74 1.23 13.74 0.97C13.74 0.71 13.63 0.46 13.44 0.28Z" fill="#797981" fill-opacity="1.000000" fill-rule="nonzero"/>
</svg>
