<?xml version="1.0" encoding="iso-8859-1"?>
<!-- Uploaded to: SVG Repo, www.svgrepo.com, Generator: SVG Repo Mixer Tools -->
<!DOCTYPE svg PUBLIC "-//W3C//DTD SVG 1.1//EN" "http://www.w3.org/Graphics/SVG/1.1/DTD/svg11.dtd">
<svg fill="#000000" version="1.1" id="Capa_1" xmlns="http://www.w3.org/2000/svg" xmlns:xlink="http://www.w3.org/1999/xlink" 
	 width="800px" height="800px" viewBox="0 0 171.969 171.969"
	 xml:space="preserve">
<g>
	<g id="vIaeaG_1_">
		<g>
			<g>
				<path d="M39.183,164.273c-2.783,0.903-5.497,0.386-8.102,0.345c0-2.011-0.173-3.809,0.053-5.55
					c0.185-1.447,0.769-2.864,1.305-4.251c0.513-1.33,0.551-2.579,0.005-3.899c-0.688-1.66-0.635-3.356-0.01-5.037
					c0.399-1.066,0.523-2.093,0.196-3.271c-0.317-1.128-0.249-2.371-0.343-3.56c-0.01-0.143-0.025-0.351,0.058-0.427
					c1.221-1.173,0.513-2.625,0.556-3.956c0.066-2.239,0.066-4.479,0.061-6.723c0-0.803-0.097-1.604-0.17-2.691
					c-1.429,2.356-2.204,3.961-1.008,7.271c-1.191-1.274-1.993-3.179-1.343-4.656c1.102-2.504,0.947-4.891,0.188-7.379
					c-0.109-0.355,0.061-0.812,0.15-1.208c0.079-0.355,0.386-0.747,0.302-1.036c-0.482-1.66,0.267-3.067,0.848-4.494
					c0.384-0.949,0.442-1.792,0.14-2.808c-0.889-2.966-1.196-5.962-0.645-9.075c0.437-2.447,0.251-4.91-0.894-7.23
					c-2.08-4.235-3.072-8.691-2.932-13.441c0.114-3.895-0.173-7.805-0.069-11.7c0.167-6.309,1.607-12.339,5.03-17.702
					c3.171-4.966,7.269-8.991,13.208-10.499c4.882-1.247,9.909-1.777,14.896-1.127c2.762,0.358,5.522,1.414,8.054,2.63
					c1.899,0.912,3.349,0.912,4.931-0.302c1.841-1.414,3.613-2.928,5.553-4.189c1.841-1.203,3.527-2.534,4.905-4.228
					c3.91-4.816,8.648-8.909,12.279-13.982c0.538-0.762,1.468-1.244,2.229-1.848c2.341-1.861,4.58-3.862,7.038-5.548
					c2.818-1.927,5.885-3.474,9.1-4.675c0.695-0.259,1.391-0.515,2.147-0.794c0.32-2.153,0.401-4.359,2.214-5.934
					c0.798-0.706,1.62-1.27,2.824-1.3c0.457,1.881,0.908,3.712,1.365,5.585c1.26,0,2.474,0,3.869,0
					c0.311-0.645,0.625-1.566,1.168-2.315c0.457-0.63,1.117-1.206,1.818-1.554c1.59-0.797,1.686-0.516,2.077,1.315
					c0.437,2.059,0.797,4.093,0.782,6.202c-0.006,0.516,0.482,1.046,0.767,1.557c0.914,1.623,1.863,3.222,2.737,4.865
					c1.091,2.044,2.051,4.156,3.203,6.162c0.798,1.399,1.031,2.564,0.285,4.177c-1.62,3.483-1.133,7.114-0.092,10.702
					c1.062,3.654,2.062,7.325,3.093,10.986c0.116,0.432,0.178,0.909,0.406,1.279c1.736,2.778,1.016,5.527-0.03,8.288
					c-0.133,0.35-0.239,0.713-0.3,1.082c-0.295,1.836-1.163,2.94-3.204,3.085c-0.97,0.068-1.793,0.868-2.936,0.863
					c-1.655-0.005-3.082-0.49-4.453-1.29c-1.092-0.64-1.904-1.566-1.884-2.866c0.046-2.557-1.458-4.238-3.058-5.921
					c-1.909-2.009-3.731-4.098-5.661-6.083c-0.589-0.609-1.401-1.016-2.138-1.478c-1.255-0.784-2.529-1.533-3.819-2.312
					c-1.315,2.912-2.742,5.875-4.012,8.906c-1.482,3.562-1.802,7.155-0.223,10.852c1.441,3.375,2.366,6.922,2.686,10.598
					c0.224,2.575-0.249,5.101-1.097,7.482c-0.979,2.734-2.265,5.368-3.534,7.993c-0.467,0.97-0.808,1.884-0.776,2.98
					c0.142,4.723-0.899,9.182-2.92,13.462c-1.112,2.352-1.961,4.84-2.875,7.287c-0.843,2.255-1.314,4.59-1.305,7.008
					c0.016,2.396,0.127,4.804-0.03,7.19c-0.132,2-0.386,4.031-0.919,5.951c-0.95,3.397-1.671,6.8-1.793,10.328
					c-0.061,1.869-0.319,3.728-0.376,5.597c-0.03,0.954,0.27,1.919,0.285,2.874c0.015,0.873,0,1.808-0.285,2.604
					c-0.589,1.646-0.497,3.133,0.152,4.769c0.736,1.843,1.757,3.605,1.712,5.748c-0.021,0.894,0.619,1.808,0.984,2.701
					c0.244,0.604,0.528,1.188,0.838,1.864c-1.99,0.965-3.98,0.614-5.931,0.919c0.051,0.67,0.092,1.249,0.138,1.965
					c-3.448,0.473-6.855,0.716-10.289,0.457c-0.437-0.03-1.039-0.401-1.221-0.776c-0.472-0.996-0.81-2.062-1.092-3.134
					c-0.119-0.467-0.063-1.041,0.089-1.508c0.224-0.706,0.551-1.386,0.904-2.036c0.764-1.396,0.724-2.707-0.284-3.966
					c-0.282-0.351-0.559-0.711-0.782-1.097c-0.82-1.377-1.34-2.773-0.914-4.464c1.008-3.996,1.351-8.069,1.166-12.202
					c-0.079-1.747-0.351-3.413-1.082-4.997c-1.12-2.427-1.518-4.921-1.285-7.617c0.467-5.321-0.168-10.593-1.145-15.833
					c-0.749-4.031-1.523-8.079-1.419-12.218c0.01-0.437-0.066-0.873-0.125-1.543c-2.438,0.451-4.743,1.122-7.071,1.238
					c-2.288,0.112-4.604-0.345-6.99-0.559c-0.294,1.604-0.665,3.271-0.894,4.956c-0.317,2.356-1.29,4.443-2.569,6.389
					c-1.331,2.031-1.93,4.225-1.569,6.611c0.302,2.011-0.188,3.91-0.993,5.637c-1.81,3.869-2.605,7.911-2.694,12.151
					c-0.025,1.341-0.333,2.676-0.391,4.017c-0.094,2.244-0.239,4.51,0.475,6.678c0.373,1.143,0.363,2.27-0.127,3.275
					c-0.82,1.69-0.627,3.26,0.01,4.926c0.579,1.503,1.209,2.965,1.082,4.702c-0.076,1.117,0.5,2.285,0.833,3.636
					c-3.067,1.076-6.01,0.736-8.947,0.371c0-2.017-0.094-3.642,0.03-5.246c0.089-1.087,0.389-2.188,0.774-3.22
					c0.566-1.513,0.958-2.935,0-4.458c-0.287-0.457-0.193-1.163-0.348-2.32c-0.51,2.29-2.188,2.863-3.438,3.833
					c-1.663,1.29-5.865,0.787-7.305-0.736c-0.297-0.314-0.35-0.862-0.559-1.427c-0.883,1.138-1.211,2.153-0.606,3.413
					c0.348,0.735,0.416,1.594,0.695,2.36c0.391,1.062,0.562,2.057,0.376,3.235C38.762,161.236,39.074,162.607,39.183,164.273z
					 M92.007,161.937c1.549-2.742,1.487-5.338,0.432-7.963c-0.463-1.147-0.528-2.224-0.244-3.473c0.665-2.895,1.219-5.825,1.6-8.771
					c0.457-3.539,0.787-7.083,0.178-10.679c-0.325-1.889-0.554-3.991-0.046-5.769c0.604-2.092,0.833-4.148,0.508-6.175
					c-0.645-3.991-0.157-7.927,0.31-11.847c0.254-2.118,0.376-4.058-0.487-6.124c-0.462-1.112-1.021-1.65-1.98-2.026
					c-0.416,0.6-0.848,1.046-1.087,1.584c-0.686,1.554-1.64,3.098-1.863,4.733c-0.36,2.646-0.333,5.362-0.267,8.054
					c0.119,4.702,0.66,9.368,1.724,13.959c0.519,2.249,0.493,4.489-0.502,6.576c-1.336,2.782-1.615,5.702-1.476,8.724
					c0.074,1.493-0.089,3.006,0.056,4.489c0.198,2.066,0.584,4.113,0.892,6.175c0.162,1.102,0.432,2.198,0.457,3.301
					C90.25,158.554,90.783,160.19,92.007,161.937z M50.327,109.892c-0.079,0.006-0.162,0.011-0.238,0.025
					c0.17,0.711,0.424,1.422,0.477,2.144c0.046,0.594,0.561,0.832,0.691,1.147c0.251,0.609-0.061,1.432-0.082,2.173
					c-0.038,1.249-0.053,2.493-0.043,3.743c0.025,2.584-0.16,5.199,0.218,7.733c0.188,1.259,0.485,2.407,0.213,3.687
					c-0.135,0.64-0.061,1.351,0.048,2.006c0.305,1.874,0.145,3.661-0.782,5.357c-0.091,0.183-0.19,0.487-0.109,0.609
					c0.683,0.96,0.018,1.808-0.119,2.722c-0.269,1.868-0.368,3.758-0.536,5.642c0.147,0.025,0.292,0.051,0.432,0.071
					c0.579-2.438,1.369-4.854,1.686-7.328c0.378-2.944,0.378-5.94,0.482-8.917c0.038-1.035-0.12-2.082-0.16-3.122
					c-0.104-2.595-0.208-5.195-0.277-7.79c-0.01-0.432,0.158-0.873,0.277-1.3c0.612-2.199,1.493-4.326,1.627-6.652
					c0.109-1.939,0.155-3.899,0.493-5.804c0.376-2.103,0.178-4.149-0.16-6.206c-0.421-2.574-1.201-3.341-3.395-3.63
					c-0.048,2.188,0.16,4.433-0.213,6.586c-0.421,2.417-0.089,4.58,0.884,6.733c0.051,0.116-0.025,0.294-0.048,0.437
					c-0.675-0.6-0.64,0.346-1.018,0.457C50.571,110.253,50.451,110.076,50.327,109.892z"/>
			</g>
		</g>
	</g>
</g>
</svg>