<?xml version="1.0" standalone="no"?>
<!DOCTYPE svg PUBLIC "-//W3C//DTD SVG 20010904//EN"
 "http://www.w3.org/TR/2001/REC-SVG-20010904/DTD/svg10.dtd">
<svg version="1.0" xmlns="http://www.w3.org/2000/svg"
 width="1280.000000pt" height="719.000000pt" viewBox="0 0 1280.000000 719.000000"
 preserveAspectRatio="xMidYMid meet">

<g transform="translate(0.000000,719.000000) scale(0.100000,-0.100000)"
fill="#000000" stroke="none">
<path d="M6720 6239 c-78 -20 -281 -116 -287 -135 -2 -6 6 -14 19 -18 16 -4
60 12 148 54 114 55 251 100 304 100 12 0 28 5 36 10 28 18 -141 10 -220 -11z"/>
<path d="M5715 6234 c-166 -31 -401 -129 -550 -229 -218 -147 -415 -350 -569
-587 -31 -47 -56 -89 -56 -93 0 -3 41 49 91 117 157 211 381 417 575 528 167
95 373 165 570 191 171 23 394 6 612 -46 21 -5 23 -3 20 22 -4 35 -60 65 -163
89 -101 23 -424 28 -530 8z"/>
<path d="M6924 6224 c-55 -20 -112 -70 -168 -147 -52 -74 -106 -124 -141 -133
-14 -3 -30 -14 -35 -24 -5 -10 -27 -24 -47 -31 -113 -36 -256 -143 -306 -228
-26 -44 -12 -39 47 17 64 60 120 94 244 144 53 21 104 47 112 57 9 10 26 24
39 30 46 25 103 85 137 147 38 69 98 128 150 150 19 8 34 19 34 24 0 13 -16
12 -66 -6z"/>
<path d="M5945 6090 c-423 -77 -701 -200 -875 -387 -186 -200 -260 -356 -260
-543 0 -145 45 -262 147 -390 58 -73 123 -140 123 -128 0 3 -24 45 -54 92 -67
107 -115 235 -122 330 -24 293 248 655 631 841 187 91 417 150 627 160 62 3
138 8 168 12 93 9 24 24 -135 29 -110 3 -164 -1 -250 -16z"/>
<path d="M7065 5973 c-16 -9 -57 -37 -90 -63 -77 -60 -116 -80 -159 -80 -46 0
-66 9 -66 29 -1 9 -7 2 -14 -15 -21 -48 -57 -69 -168 -99 -91 -25 -178 -58
-178 -69 0 -2 21 2 47 10 25 8 75 14 110 14 81 0 122 17 163 68 l33 41 49 -67
50 -67 -8 -85 c-14 -146 -10 -210 15 -258 12 -24 21 -45 19 -46 -2 -1 -20 -13
-40 -25 -51 -30 -104 -94 -125 -150 -9 -25 -29 -68 -44 -96 -100 -184 -71
-372 83 -541 119 -130 169 -243 137 -308 -19 -40 -62 -69 -100 -69 l-32 0 23
-19 c33 -27 113 -25 142 4 14 14 23 18 26 10 9 -29 109 1 137 42 32 44 6 143
-51 197 l-25 23 20 -44 c35 -77 21 -163 -30 -191 -26 -14 -34 -6 -20 19 30 56
-11 133 -146 274 -153 158 -185 209 -203 323 -13 80 -1 165 34 238 l24 52 1
-40 c2 -75 31 -180 71 -260 70 -140 102 -163 81 -59 -14 73 -14 247 0 316 17
79 71 190 119 242 23 25 45 46 49 46 3 0 7 -24 9 -53 4 -68 17 -123 40 -176
l19 -42 -31 -31 c-36 -36 -19 -54 18 -19 12 12 25 21 28 21 4 0 21 -24 39 -52
17 -29 38 -63 47 -76 14 -21 13 -23 -24 -38 -20 -9 -48 -14 -60 -11 -18 3 -25
-3 -35 -27 -7 -17 -18 -35 -23 -39 -6 -5 -2 -6 9 -2 11 4 28 7 37 7 9 0 22 6
28 13 6 8 17 12 24 9 7 -2 29 12 50 33 27 27 41 35 51 28 48 -35 196 -133 282
-188 278 -179 392 -399 301 -582 -17 -35 -338 -361 -338 -343 0 3 32 55 72
115 40 59 82 137 95 173 37 106 27 224 -28 333 -21 40 -16 45 21 21 18 -11 16
-8 -5 10 -16 14 -33 26 -36 26 -4 0 -26 30 -50 67 -25 38 -111 135 -193 218
-158 159 -155 148 5 -21 88 -93 179 -203 179 -216 0 -3 -20 -8 -45 -10 -33 -4
-73 -23 -148 -70 -119 -75 -166 -94 -196 -78 -27 14 -41 42 -41 80 0 26 -5 33
-30 41 -36 13 -39 32 -7 47 22 11 22 11 -4 11 -30 1 -51 22 -49 48 4 34 0 41
-30 53 -54 22 -55 32 -16 118 42 92 44 123 15 212 -25 76 -26 165 -5 255 16
67 14 89 -3 28 -33 -117 -34 -157 -7 -265 14 -57 26 -114 26 -125 0 -12 -16
-58 -35 -102 -19 -43 -35 -84 -35 -90 0 -6 18 -20 40 -31 35 -18 40 -25 40
-55 0 -19 6 -38 14 -42 8 -4 16 -19 18 -33 2 -15 14 -30 31 -38 22 -11 27 -20
27 -48 0 -41 37 -84 72 -84 31 1 95 31 165 78 109 74 162 93 208 76 20 -8 67
-100 89 -173 35 -118 16 -218 -65 -352 -29 -46 -67 -107 -84 -136 -18 -29 -42
-83 -55 -122 l-22 -69 -141 -70 c-326 -161 -539 -348 -652 -572 -34 -66 -77
-181 -71 -187 2 -2 34 42 71 99 210 320 327 415 820 668 317 162 445 242 602
374 367 307 504 591 418 864 -43 136 -142 262 -300 380 -144 109 -475 249
-565 240 -28 -3 -8 -14 131 -76 344 -153 534 -308 643 -524 45 -88 60 -163 53
-263 -9 -145 -70 -259 -221 -414 -84 -86 -260 -236 -304 -260 -19 -10 -19 -9
-4 32 8 23 18 78 22 122 9 90 34 151 115 275 72 109 94 171 95 255 0 59 -5 78
-29 120 -64 112 -190 196 -411 275 -386 139 -566 235 -615 331 -24 46 -17 53
20 20 20 -17 39 -31 42 -31 4 0 -12 16 -35 35 -22 20 -44 44 -47 55 -4 11 -10
20 -15 20 -5 0 -7 -6 -4 -14 3 -8 -3 -17 -14 -20 -30 -10 -107 -97 -135 -152
-60 -120 -83 -252 -67 -381 6 -47 9 -88 6 -90 -8 -8 -54 80 -76 146 -44 131
-36 266 20 354 34 53 106 110 132 104 11 -3 18 0 18 8 0 8 18 18 43 24 l42 10
-49 -2 -50 -2 -9 40 c-7 28 -5 75 8 171 17 122 17 136 3 173 -17 43 -15 51 13
51 31 0 75 47 114 122 21 40 52 85 69 100 34 31 27 35 -19 11z m11 -810 c35
-46 124 -115 140 -109 7 3 44 -9 81 -26 37 -17 158 -68 269 -112 110 -45 231
-100 270 -121 84 -47 163 -124 200 -196 40 -75 40 -176 1 -269 -27 -63 -77
-141 -62 -95 14 44 18 193 5 246 -28 119 -98 215 -210 287 -30 20 -145 79
-255 132 -111 54 -220 109 -244 124 -24 15 -45 25 -49 22 -8 -9 -11 -7 203
-112 273 -132 350 -178 416 -245 132 -133 156 -288 87 -544 -12 -44 -24 -71
-26 -60 -2 11 -17 79 -34 150 -54 231 -118 304 -384 438 -115 58 -187 101
-219 132 -27 25 -52 45 -56 45 -4 0 -27 24 -51 53 -79 94 -77 84 -17 113 l54
26 -40 -7 c-22 -4 -44 -11 -49 -16 -6 -5 -15 -9 -22 -9 -18 0 -54 115 -60 190
l-5 65 16 -35 c9 -19 27 -49 41 -67z m798 -1138 c1 -101 -3 -131 -22 -187
l-23 -67 -102 -60 c-108 -64 -274 -144 -287 -139 -14 5 40 105 84 156 23 26
92 94 153 151 127 117 172 187 174 270 0 42 1 44 11 21 6 -14 12 -79 12 -145z"/>
<path d="M7096 5941 c-9 -16 -20 -58 -26 -94 -12 -78 -23 -109 -52 -151 -15
-21 -17 -27 -5 -17 29 23 66 113 76 182 5 37 14 76 20 88 7 12 9 21 7 21 -3 0
-12 -13 -20 -29z"/>
<path d="M7179 5431 c-56 -18 -119 -63 -119 -84 0 -6 10 -1 23 10 58 54 137
69 274 53 50 -5 100 -12 110 -15 10 -3 -2 5 -27 16 -34 17 -68 23 -140 25 -52
2 -107 0 -121 -5z"/>
<path d="M5632 5358 c-50 -67 -94 -155 -128 -255 -21 -61 -27 -98 -27 -168 0
-113 18 -183 90 -350 68 -157 74 -178 83 -280 l7 -80 1 65 c2 77 -22 184 -83
372 -25 76 -48 166 -51 200 l-6 63 30 -50 c38 -62 156 -210 185 -231 12 -8 48
-30 80 -49 57 -33 57 -33 51 -9 -4 15 -2 24 5 24 12 0 41 58 41 81 0 6 -16 -3
-35 -20 -43 -37 -90 -41 -128 -11 -37 29 -121 158 -148 227 -47 119 -26 302
52 457 17 32 28 60 25 63 -2 2 -22 -19 -44 -49z"/>
<path d="M6253 5263 c-1 -42 3 -85 8 -95 18 -33 70 -58 122 -58 26 0 47 -4 47
-10 0 -5 -21 -10 -46 -10 -25 0 -43 -4 -40 -9 6 -9 97 -44 101 -38 1 1 5 28 8
60 l6 58 -62 44 c-33 25 -65 45 -70 45 -5 0 -11 -9 -14 -20 -10 -36 -28 -15
-33 38 -9 84 -25 81 -27 -5z"/>
<path d="M4601 5270 c-102 -146 -161 -321 -161 -480 0 -244 104 -435 364 -669
154 -138 308 -226 626 -361 260 -110 481 -236 627 -360 73 -62 141 -145 248
-304 43 -64 80 -114 82 -112 8 7 -58 163 -92 221 -130 215 -362 399 -700 553
-60 27 -164 74 -230 103 -218 96 -332 174 -500 343 -136 137 -200 222 -265
351 -66 131 -84 204 -84 335 0 130 18 201 84 338 27 56 48 102 46 102 -2 0
-22 -27 -45 -60z"/>
<path d="M6385 5238 c51 -46 101 -77 124 -78 11 0 11 3 1 15 -10 12 -10 18 0
29 16 21 9 60 -13 64 -10 2 -16 -2 -15 -9 5 -22 -41 -22 -88 0 -62 30 -63 27
-9 -21z"/>
<path d="M7173 5185 c39 -23 143 -42 267 -49 238 -15 323 -56 385 -186 26 -55
27 -55 20 -15 -19 116 -26 134 -66 168 -64 55 -100 62 -329 63 -113 1 -218 6
-235 12 -65 22 -69 23 -42 7z"/>
<path d="M7140 4820 c-8 -5 -10 -10 -5 -10 6 0 17 5 25 10 8 5 11 10 5 10 -5
0 -17 -5 -25 -10z"/>
<path d="M5916 4470 c14 -30 64 -118 110 -196 l84 -140 -15 -37 c-29 -69 -16
-85 15 -18 34 73 35 85 12 127 -29 52 -160 237 -197 279 l-36 40 27 -55z"/>
<path d="M7125 4470 c-3 -5 -1 -10 4 -10 6 0 11 5 11 10 0 6 -2 10 -4 10 -3 0
-8 -4 -11 -10z"/>
<path d="M7700 4296 c0 -2 8 -10 18 -17 15 -13 16 -12 3 4 -13 16 -21 21 -21
13z"/>
<path d="M6247 4047 c4 -50 1 -83 -12 -127 -15 -49 -16 -65 -6 -86 10 -22 16
-25 44 -21 26 4 44 -3 98 -40 37 -25 75 -43 85 -41 19 3 -3 18 -134 83 l-53
27 6 81 c5 68 3 92 -13 137 l-20 55 5 -68z"/>
<path d="M6569 4027 c-47 -31 -96 -108 -105 -163 -3 -25 -4 -48 0 -51 3 -3 27
14 54 39 26 24 60 53 75 63 37 24 29 29 -16 10 -42 -17 -42 -17 -23 28 20 48
50 70 86 65 32 -5 37 1 18 20 -18 18 -52 14 -89 -11z"/>
<path d="M6796 4016 c-10 -40 -51 -81 -139 -139 -85 -57 -135 -102 -124 -113
12 -12 199 120 228 159 28 39 55 104 46 113 -2 3 -7 -6 -11 -20z"/>
<path d="M3840 3355 c-143 -40 -254 -127 -308 -242 -21 -47 -26 -72 -26 -133
0 -45 7 -89 16 -111 84 -193 357 -215 474 -39 32 49 44 120 20 120 -9 0 -16
-7 -16 -15 0 -25 -36 -88 -67 -116 -75 -71 -180 -89 -263 -46 -127 64 -110
252 34 385 111 101 228 138 411 129 171 -9 453 -67 448 -93 -3 -19 -221 -473
-276 -578 -180 -339 -353 -478 -647 -516 -333 -44 -601 166 -577 452 8 92 36
147 108 211 32 28 59 57 59 64 0 23 -46 14 -89 -17 -58 -42 -97 -109 -117
-198 -36 -160 2 -311 104 -410 101 -98 246 -152 430 -160 320 -13 552 93 697
316 62 97 90 159 192 435 79 215 157 387 174 387 4 0 48 -13 97 -30 50 -16 97
-30 105 -30 9 0 18 -4 21 -9 3 -5 -21 -65 -54 -134 -63 -131 -154 -370 -196
-515 -27 -96 -32 -213 -10 -266 32 -77 108 -96 204 -51 71 33 137 102 205 215
31 52 57 89 57 82 0 -45 -198 -464 -288 -612 l-40 -65 34 -9 c48 -12 79 -1
107 37 14 17 61 123 106 235 94 236 118 285 177 368 49 70 153 168 202 192 47
23 61 5 34 -45 -79 -142 -95 -180 -100 -240 -4 -59 -3 -63 26 -92 55 -56 136
-31 212 65 37 47 41 46 54 -17 10 -45 40 -73 79 -73 49 0 107 41 166 119 l50
66 -2 -59 c-2 -69 14 -106 54 -122 49 -21 91 5 170 103 l39 49 0 -52 c0 -41 5
-56 25 -75 61 -62 172 -6 265 134 14 21 15 19 15 -43 0 -54 4 -68 24 -90 49
-52 129 -26 201 65 l38 48 11 -43 c20 -81 98 -119 169 -82 41 21 133 123 177
196 l40 65 3 -34 c4 -43 -15 -191 -31 -238 -12 -35 -15 -37 -152 -84 -299
-103 -425 -195 -425 -311 0 -83 68 -125 183 -115 155 14 337 177 445 400 30
60 51 91 70 101 32 16 113 100 132 137 13 24 14 23 26 -24 14 -56 32 -79 79
-101 109 -52 237 17 319 174 21 38 39 70 41 70 21 0 -162 -390 -285 -607 l-40
-72 46 -7 c37 -5 51 -3 72 13 28 21 36 37 163 347 40 99 94 211 119 250 70
106 213 236 260 236 22 0 8 -43 -40 -126 -59 -104 -78 -174 -60 -228 19 -59
88 -83 148 -52 29 15 88 75 116 116 l16 24 0 -46 c0 -39 5 -50 31 -72 74 -62
165 -14 266 140 10 16 11 12 7 -22 -16 -108 59 -175 144 -130 33 18 93 80 120
124 l19 33 6 -47 c9 -86 69 -134 167 -134 71 0 143 33 192 88 34 38 128 208
128 232 0 25 -18 4 -53 -63 -21 -39 -53 -92 -71 -117 -81 -112 -209 -145 -256
-67 -51 84 1 260 116 387 104 115 204 92 140 -31 -31 -60 -31 -59 -8 -59 40 0
87 76 78 125 -9 45 -37 67 -94 73 -118 11 -208 -69 -318 -279 -77 -150 -151
-239 -196 -239 -46 0 -51 64 -14 162 34 91 130 279 161 316 l27 32 -47 0 c-25
0 -55 -5 -66 -10 -11 -6 -47 -65 -80 -132 -110 -219 -190 -333 -258 -368 -22
-11 -27 -10 -43 10 -10 12 -18 28 -18 34 0 58 143 365 201 430 l31 36 -54 0
c-31 0 -62 -6 -74 -15 -12 -8 -58 -87 -104 -177 -100 -196 -135 -253 -184
-295 -67 -60 -105 -34 -85 58 6 28 50 129 98 225 l87 174 -27 0 c-63 0 -223
-104 -328 -214 -43 -45 -61 -59 -57 -44 55 185 65 272 33 284 -7 2 -31 1 -55
-3 l-43 -8 -2 -77 c-2 -71 -6 -84 -61 -193 -88 -177 -184 -263 -270 -241 -49
12 -69 93 -46 178 10 33 15 37 63 48 102 25 191 83 233 156 53 90 27 154 -62
154 -109 0 -225 -107 -309 -285 -38 -81 -67 -127 -109 -173 -61 -65 -82 -77
-73 -39 16 63 27 211 21 275 -6 70 -7 72 -33 72 -41 0 -68 -25 -86 -81 -23
-67 -105 -188 -162 -239 -41 -36 -52 -41 -87 -38 -34 3 -42 7 -50 31 -24 67
57 228 175 348 108 110 180 129 227 59 27 -41 37 -47 46 -25 17 46 -66 95
-161 95 -126 0 -232 -84 -320 -255 -96 -187 -158 -265 -209 -265 -37 0 -50 38
-36 101 15 65 152 348 180 373 31 27 27 36 -15 36 -77 0 -78 -2 -168 -179
-127 -249 -221 -360 -278 -330 -16 9 -19 19 -15 62 6 62 136 341 186 398 18
20 32 39 32 43 0 8 -78 8 -108 0 -16 -5 -44 -48 -109 -173 -135 -261 -204
-352 -251 -334 -39 16 17 204 100 335 l36 56 -41 6 c-58 10 -78 -9 -151 -137
-73 -129 -135 -210 -179 -237 -129 -79 -118 95 18 285 113 159 259 232 297
150 13 -29 26 -32 35 -9 16 42 -84 91 -162 80 -138 -21 -260 -137 -329 -314
-45 -115 -138 -225 -184 -220 -23 3 -27 8 -30 40 -4 47 53 192 132 338 31 56
56 105 56 106 0 14 -62 -2 -118 -30 -86 -43 -177 -112 -241 -181 -27 -30 -51
-55 -54 -55 -2 0 7 37 20 83 27 92 39 185 25 205 -6 10 -23 11 -61 6 l-53 -7
6 -32 c9 -45 -11 -129 -46 -199 -176 -351 -412 -446 -368 -148 24 160 143 513
223 665 l41 78 86 -7 c66 -5 94 -3 122 9 44 18 72 58 63 87 -9 27 -23 25 -31
-5 -9 -36 -32 -45 -111 -45 -93 0 -100 7 -64 57 16 22 41 50 56 61 24 19 25
22 8 22 -41 0 -89 -24 -133 -66 -25 -24 -55 -44 -65 -44 -21 0 -207 49 -214
56 -10 10 55 64 76 64 26 0 41 26 25 42 -18 18 -62 -1 -110 -46 l-45 -43 -106
35 c-237 76 -317 94 -461 98 -100 3 -149 0 -190 -11z m3874 -682 c-1 -79 -81
-164 -185 -198 -28 -10 -53 -15 -56 -12 -12 13 58 118 124 185 55 56 77 73 95
70 20 -3 23 -8 22 -45z m-700 -615 c-96 -191 -271 -339 -403 -342 -46 -1 -56
2 -73 25 -17 22 -18 31 -9 66 16 59 79 124 161 167 71 37 314 135 338 136 8 0
3 -18 -14 -52z"/>
<path d="M8285 1234 c-77 -19 -103 -36 -126 -87 -55 -123 10 -256 121 -244 62
7 100 50 100 113 0 56 -12 79 -50 99 -45 23 -94 19 -129 -11 -34 -28 -38 -21
-17 31 17 39 48 58 129 75 35 8 57 18 57 27 0 16 -8 15 -85 -3z m51 -161 c23
-30 17 -91 -11 -118 -53 -54 -145 -16 -145 58 0 40 31 84 63 89 32 5 77 -9 93
-29z"/>
<path d="M6272 1213 c9 -46 96 -55 119 -12 15 29 0 39 -18 12 -19 -28 -59 -30
-75 -3 -16 25 -31 26 -26 3z"/>
<path d="M3988 1130 c-1 -5 -2 -59 0 -120 3 -88 6 -110 18 -110 10 0 14 13 14
50 0 48 1 50 28 50 20 0 38 -13 70 -50 24 -28 50 -50 58 -50 17 0 18 -1 -50
84 l-28 36 41 55 c45 60 47 65 27 65 -7 0 -31 -25 -51 -55 -31 -45 -44 -55
-67 -55 -27 0 -28 1 -28 55 0 41 -4 55 -14 55 -8 0 -16 -4 -18 -10z"/>
<path d="M4434 1131 c-66 -28 -87 -132 -38 -190 44 -53 123 -54 175 -1 24 24
29 37 29 79 0 69 -36 111 -100 117 -25 2 -55 0 -66 -5z m115 -47 c70 -88 -35
-202 -123 -133 -35 27 -37 101 -4 136 32 34 99 32 127 -3z"/>
<path d="M4820 1020 c0 -100 3 -120 15 -120 11 0 15 12 15 50 l0 50 75 0 75 0
0 -50 c0 -38 4 -50 15 -50 13 0 15 20 15 120 0 100 -2 120 -15 120 -12 0 -15
-13 -15 -55 l0 -55 -75 0 -75 0 0 55 c0 42 -3 55 -15 55 -12 0 -15 -20 -15
-120z"/>
<path d="M5270 1020 c0 -100 3 -120 15 -120 11 0 15 12 15 50 l0 50 75 0 75 0
0 -50 c0 -38 4 -50 15 -50 13 0 15 20 15 120 0 100 -2 120 -15 120 -12 0 -15
-13 -15 -55 l0 -55 -75 0 -75 0 0 55 c0 42 -3 55 -15 55 -12 0 -15 -20 -15
-120z"/>
<path d="M5720 1020 l0 -120 69 0 c87 0 121 22 121 79 0 53 -26 74 -100 79
l-60 4 0 39 c0 28 -4 39 -15 39 -12 0 -15 -20 -15 -120z m141 0 c22 -12 26
-59 7 -78 -7 -7 -36 -12 -65 -12 l-53 0 0 50 0 50 46 0 c25 0 54 -5 65 -10z"/>
<path d="M5960 1020 c0 -100 3 -120 15 -120 13 0 15 20 15 120 0 100 -2 120
-15 120 -12 0 -15 -20 -15 -120z"/>
<path d="M6220 1020 c0 -152 7 -154 110 -27 l75 92 3 -93 c2 -73 6 -92 17 -92
12 0 15 21 15 120 0 94 -3 120 -13 120 -8 0 -47 -42 -88 -92 l-74 -93 -3 93
c-2 84 -4 92 -22 92 -19 0 -20 -7 -20 -120z"/>
<path d="M6920 1020 c0 -100 3 -120 15 -120 11 0 15 12 15 50 0 49 1 50 29 50
23 0 39 -11 72 -50 23 -27 48 -50 56 -50 20 0 16 8 -32 65 l-45 52 45 62 c35
47 41 61 27 61 -9 -1 -34 -25 -55 -55 -31 -46 -43 -55 -67 -55 -30 0 -30 1
-30 55 0 42 -3 55 -15 55 -12 0 -15 -20 -15 -120z"/>
<path d="M7347 1055 c-6 -89 -18 -125 -42 -125 -8 0 -15 -7 -15 -15 0 -24 38
-17 55 9 9 14 19 51 21 83 9 106 7 103 69 103 l55 0 0 -105 c0 -87 3 -105 15
-105 13 0 15 20 15 120 l0 120 -84 0 -83 0 -6 -85z"/>
<path d="M7739 1098 c10 -24 33 -74 50 -111 37 -81 38 -96 10 -126 -17 -18
-28 -22 -55 -16 -40 7 -47 -11 -9 -25 40 -15 81 6 104 54 66 135 118 261 109
265 -14 5 -21 -5 -63 -101 -21 -49 -41 -88 -44 -88 -4 0 -24 42 -46 92 -26 60
-46 94 -58 96 -16 3 -16 1 2 -40z"/>
</g>
</svg>
